<?xml version="1.0" encoding="UTF-8" standalone="no"?>
<svg xmlns:dc="http://purl.org/dc/elements/1.1/" xmlns:cc="http://creativecommons.org/ns#" xmlns:rdf="http://www.w3.org/1999/02/22-rdf-syntax-ns#" xmlns:svg="http://www.w3.org/2000/svg" xmlns="http://www.w3.org/2000/svg" xmlns:xlink="http://www.w3.org/1999/xlink" xmlns:sodipodi="http://sodipodi.sourceforge.net/DTD/sodipodi-0.dtd" xmlns:inkscape="http://www.inkscape.org/namespaces/inkscape" inkscape:version="1.0beta2 (2b71d25, 2019-12-03)" sodipodi:docname="barre-palette-l.svg" viewBox="0 0 520.96814 16.986448" height="16.986448" width="520.96814" id="svg2808" version="1.1">
  <metadata id="metadata2814">
    <rdf:RDF>
      <cc:Work rdf:about="">
        <dc:format>image/svg+xml</dc:format>
        <dc:type rdf:resource="http://purl.org/dc/dcmitype/StillImage"/>
        <dc:title/>
      </cc:Work>
    </rdf:RDF>
  </metadata>
  <defs id="defs2812">
    <linearGradient id="linearGradient4065" inkscape:collect="always">
      <stop id="stop4061" offset="0" style="stop-color:#41963c;stop-opacity:1"/>
      <stop id="stop4063" offset="1" style="stop-color:#b4f679;stop-opacity:1"/>
    </linearGradient>
    <linearGradient gradientTransform="translate(8.4090611,-79.886081)" gradientUnits="userSpaceOnUse" y2="109.27668" x2="521.5921" y1="109.27668" x1="0.62393445" id="linearGradient4067" xlink:href="#linearGradient4065" inkscape:collect="always"/>
  </defs>
  <sodipodi:namedview inkscape:current-layer="g2816" inkscape:window-maximized="0" inkscape:window-y="0" inkscape:window-x="0" inkscape:cy="5.7692886" inkscape:cx="317.34369" inkscape:zoom="0.95135472" showgrid="false" id="namedview2810" inkscape:window-height="900" inkscape:window-width="1440" inkscape:pageshadow="2" inkscape:pageopacity="0" guidetolerance="10" gridtolerance="10" objecttolerance="10" borderopacity="1" inkscape:document-rotation="0" bordercolor="#666666" pagecolor="#ffffff"/>
  <g transform="translate(-9.0329956,-20.897377)" id="g2816" inkscape:label="Image" inkscape:groupmode="layer">
    <path inkscape:connector-curvature="0" id="path4059" d="m 202.76892,37.277709 c -9.53333,-0.5898 -56.09621,-0.81959 -103.473058,-0.51064 -73.779411,0.48112 -86.368083,0.28656 -87.73118,-1.35587 -2.2732859,-2.73914 -3.3937009,-11.1618 -1.7485009,-13.14425 1.4696769,-1.77095 21.7356049,-1.80201 145.6194089,-0.22321 58.04401,0.73972 84.48999,0.7916 257.99999,0.50608 95.51914,-0.15718 113.73146,0.37982 114.37842,3.37251 0.15853,0.73333 -3.01176,1.68554 -7.0451,2.116 l -7.33333,0.78268 6.66667,0.23774 c 3.66666,0.13076 7.56666,0.81937 8.66666,1.53025 2.54882,1.64716 4.37531,1.52527 -29.33333,1.95761 -65.77705,0.84366 -170.33944,3.21392 -173.99999,3.9443 -6.59959,1.31681 -104.00158,1.94156 -122.66666,0.7868 z M 512.4078,27.116769 c -0.44306,-0.44305 -1.59307,-0.49042 -2.55556,-0.10526 -1.06364,0.42563 -0.74771,0.74158 0.80556,0.80555 1.40554,0.0579 2.19305,-0.25723 1.75,-0.70029 z" style="fill:url(#linearGradient4067);fill-opacity:1;stroke-width:1.33333"/>
  </g>
</svg>