<?xml version="1.0" encoding="UTF-8" standalone="no"?>
<svg xmlns:dc="http://purl.org/dc/elements/1.1/" xmlns:cc="http://creativecommons.org/ns#" xmlns:rdf="http://www.w3.org/1999/02/22-rdf-syntax-ns#" xmlns:svg="http://www.w3.org/2000/svg" xmlns="http://www.w3.org/2000/svg" xmlns:xlink="http://www.w3.org/1999/xlink" xmlns:sodipodi="http://sodipodi.sourceforge.net/DTD/sodipodi-0.dtd" xmlns:inkscape="http://www.inkscape.org/namespaces/inkscape" version="1.1" id="svg3381" width="519.73492" height="17.281158" viewBox="0 0 519.73492 17.281158" sodipodi:docname="barre-palette-r.svg" inkscape:version="1.0beta2 (2b71d25, 2019-12-03)">
  <metadata id="metadata3387">
    <rdf:RDF>
      <cc:Work rdf:about="">
        <dc:format>image/svg+xml</dc:format>
        <dc:type rdf:resource="http://purl.org/dc/dcmitype/StillImage"/>
        <dc:title/>
      </cc:Work>
    </rdf:RDF>
  </metadata>
  <defs id="defs3385">
    <linearGradient id="linearGradient3960" inkscape:collect="always">
      <stop id="stop3964" offset="0" style="stop-color:#b6f87a;stop-opacity:1"/>
      <stop id="stop3966" offset="1" style="stop-color:#41963c;stop-opacity:1"/>
    </linearGradient>
    <linearGradient inkscape:collect="always" xlink:href="#linearGradient3960" id="linearGradient3962" x1="-12.116063" y1="136.51468" x2="507.61887" y2="136.51468" gradientUnits="userSpaceOnUse" gradientTransform="translate(25.507361,-107.7686)"/>
  </defs>
  <sodipodi:namedview pagecolor="#ffffff" bordercolor="#666666" inkscape:document-rotation="0" borderopacity="1" objecttolerance="10" gridtolerance="10" guidetolerance="10" inkscape:pageopacity="0" inkscape:pageshadow="2" inkscape:window-width="1440" inkscape:window-height="804" id="namedview3383" showgrid="false" inkscape:zoom="1.5681748" inkscape:cx="281.06033" inkscape:cy="11.698595" inkscape:window-x="0" inkscape:window-y="23" inkscape:window-maximized="0" inkscape:current-layer="g3389"/>
  <g transform="translate(-13.391298,-20.105502)" inkscape:groupmode="layer" inkscape:label="Image" id="g3389">
    <path style="fill:url(#linearGradient3962);fill-opacity:1;stroke-width:1.33333" d="m 242.05795,37.220381 c -3.60334,-1.55834 -125.99247,-4.79364 -199.999987,-5.2869 -17.011509,-0.11339 -28.140761,-0.70002 -28.35868,-1.49483 -0.197274,-0.71951 3.102726,-1.65733 7.333333,-2.08405 l 7.692015,-0.77586 -7.666667,-0.22414 c -5.593635,-0.16354 -7.666666,-0.73129 -7.666666,-2.09971 0,-3.36103 22.648895,-4.04574 121.333322,-3.6681 139.7997,0.53497 188.8206,0.46977 251.99999,-0.33515 123.90138,-1.57854 144.14977,-1.54747 145.61941,0.22343 1.64087,1.97723 0.52705,10.40238 -1.73564,13.12876 -1.34245,1.61755 -14.96519,1.86246 -91.06452,1.63715 -49.21725,-0.14572 -113.48591,0.14477 -142.81924,0.64554 -29.33333,0.50077 -53.93333,0.651 -54.66667,0.33386 z M 33.030187,26.324901 c -0.443056,-0.44306 -1.593056,-0.49043 -2.555556,-0.10527 -1.063644,0.42564 -0.747702,0.74158 0.805556,0.80556 1.405554,0.0579 2.193054,-0.25724 1.75,-0.7003 z" id="path3954" inkscape:connector-curvature="0"/>
  </g>
</svg>